<svg width="204.37" height="36.524" viewBox="0 0 204.37 36.524" xmlns="http://www.w3.org/2000/svg"><g id="svgGroup" stroke-linecap="round" fill-rule="evenodd" font-size="9pt" stroke="#ffffff" stroke-width="0.25mm" fill="#ffffff" style="stroke:#ffffff;stroke-width:0.25mm;fill:#ffffff"><path d="M 198.486 36.035 L 204.37 36.035 L 204.37 0.488 L 198.462 0.488 L 198.413 24.854 L 186.938 0.488 L 180.981 0.488 L 180.981 36.035 L 186.914 36.035 L 186.938 11.572 L 198.486 36.035 Z M 25.22 31.665 L 25.171 18.067 L 12.964 18.067 L 12.964 22.632 L 19.409 22.632 L 19.385 29.736 A 3.148 3.148 0 0 1 18.8 30.318 A 4.093 4.093 0 0 1 18.335 30.628 A 7.075 7.075 0 0 1 17.112 31.179 A 7.985 7.985 0 0 1 16.895 31.25 A 10.132 10.132 0 0 1 15.21 31.604 A 13.966 13.966 0 0 1 13.477 31.714 Q 12.036 31.69 10.901 31.226 A 5.986 5.986 0 0 1 8.911 29.907 Q 8.228 29.248 7.727 28.394 A 11.84 11.84 0 0 1 6.86 26.563 A 14.326 14.326 0 0 1 6.332 24.68 A 16.908 16.908 0 0 1 6.165 23.755 A 20.371 20.371 0 0 1 5.947 21.388 A 23.563 23.563 0 0 1 5.933 20.557 L 5.933 15.967 A 22.62 22.62 0 0 1 6.104 13.159 A 15.816 15.816 0 0 1 6.45 11.282 A 13.716 13.716 0 0 1 6.641 10.596 A 12.211 12.211 0 0 1 7.312 8.856 A 10.46 10.46 0 0 1 7.703 8.118 A 7.661 7.661 0 0 1 8.652 6.812 A 6.614 6.614 0 0 1 9.229 6.25 A 5.897 5.897 0 0 1 10.938 5.213 A 5.418 5.418 0 0 1 12.598 4.847 A 6.396 6.396 0 0 1 13.013 4.834 A 9.084 9.084 0 0 1 14.281 4.918 Q 14.952 5.013 15.524 5.214 A 5.441 5.441 0 0 1 15.686 5.274 Q 16.821 5.713 17.603 6.543 A 5.507 5.507 0 0 1 18.471 7.785 A 6.803 6.803 0 0 1 18.774 8.46 A 11.321 11.321 0 0 1 19.233 9.959 A 14.137 14.137 0 0 1 19.434 10.986 L 25.195 10.986 Q 24.951 8.447 24.048 6.409 Q 23.145 4.37 21.582 2.93 A 10.188 10.188 0 0 0 18.696 1.078 A 12.153 12.153 0 0 0 17.871 0.757 A 13.199 13.199 0 0 0 15.305 0.156 A 17.911 17.911 0 0 0 12.891 0 A 12.899 12.899 0 0 0 10.328 0.246 A 11.053 11.053 0 0 0 9.045 0.586 Q 7.275 1.172 5.811 2.246 Q 4.468 3.272 3.418 4.663 A 15.825 15.825 0 0 0 1.707 7.53 A 17.482 17.482 0 0 0 1.611 7.739 A 17.527 17.527 0 0 0 0.652 10.591 A 20.329 20.329 0 0 0 0.427 11.621 A 24.351 24.351 0 0 0 0.012 15.445 A 27.262 27.262 0 0 0 0 16.016 L 0 20.557 A 24.242 24.242 0 0 0 0.313 24.256 A 21.721 21.721 0 0 0 0.464 25.073 Q 0.903 27.222 1.758 29.004 A 13.568 13.568 0 0 0 3.65 32.105 A 12.017 12.017 0 0 0 6.226 34.473 A 11.616 11.616 0 0 0 9.117 35.882 A 13.144 13.144 0 0 0 9.448 35.986 Q 11.23 36.524 13.281 36.524 A 19.418 19.418 0 0 0 16.209 36.31 A 16.707 16.707 0 0 0 17.456 36.072 A 17.58 17.58 0 0 0 20.221 35.195 A 15.621 15.621 0 0 0 21.069 34.815 A 13.582 13.582 0 0 0 22.826 33.807 A 11.83 11.83 0 0 0 23.438 33.362 A 12.745 12.745 0 0 0 24.518 32.423 A 10.154 10.154 0 0 0 25.22 31.665 Z M 143.237 0.488 L 122.29 0.488 L 122.29 5.347 L 129.712 5.347 L 129.712 31.201 L 122.29 31.201 L 122.29 36.035 L 143.237 36.035 L 143.237 31.201 L 135.645 31.201 L 135.645 5.347 L 143.237 5.347 L 143.237 0.488 Z M 67.334 22.241 L 73.34 22.241 L 80.151 36.035 L 86.426 36.035 L 86.426 35.718 L 78.833 20.85 A 14.002 14.002 0 0 0 81.114 19.564 A 12.741 12.741 0 0 0 81.494 19.287 A 9.644 9.644 0 0 0 83.545 17.188 A 9.568 9.568 0 0 0 84.815 14.687 A 10.769 10.769 0 0 0 84.875 14.502 A 9.909 9.909 0 0 0 85.279 12.56 A 12.658 12.658 0 0 0 85.352 11.182 Q 85.352 8.521 84.424 6.531 A 9.248 9.248 0 0 0 81.836 3.198 A 11.233 11.233 0 0 0 79.12 1.645 A 13.775 13.775 0 0 0 77.832 1.196 Q 75.513 0.513 72.754 0.488 L 61.475 0.488 L 61.475 36.035 L 67.334 36.035 L 67.334 22.241 Z M 37.5 27.857 L 48.657 27.857 L 51.05 36.035 L 57.129 36.035 L 45.752 0.488 L 40.552 0.488 L 28.979 36.035 L 35.083 36.035 L 37.5 27.857 Z M 157.52 27.857 L 168.677 27.857 L 171.069 36.035 L 177.148 36.035 L 165.771 0.488 L 160.571 0.488 L 148.999 36.035 L 155.103 36.035 L 157.52 27.857 Z M 91.138 0.488 L 91.138 36.035 L 100.122 36.035 A 18.063 18.063 0 0 0 103.335 35.758 A 15.704 15.704 0 0 0 104.7 35.449 A 14.793 14.793 0 0 0 108.035 34.096 A 13.615 13.615 0 0 0 108.594 33.765 Q 110.156 32.764 111.438 31.348 A 14.998 14.998 0 0 0 113.623 28.198 A 16.014 16.014 0 0 0 114.774 25.312 A 18.749 18.749 0 0 0 115.051 24.255 A 19.723 19.723 0 0 0 115.533 20.612 A 22.643 22.643 0 0 0 115.552 19.678 L 115.552 16.895 A 21.038 21.038 0 0 0 115.298 13.575 A 18.314 18.314 0 0 0 115.015 12.158 A 18.172 18.172 0 0 0 113.962 9.033 A 16.086 16.086 0 0 0 113.501 8.081 A 14.14 14.14 0 0 0 111.145 4.859 Q 109.741 3.418 107.935 2.466 Q 106.274 1.538 104.248 1.013 A 16.657 16.657 0 0 0 100.918 0.514 A 19.328 19.328 0 0 0 99.927 0.488 L 91.138 0.488 Z M 97.07 31.275 L 97.07 5.274 L 99.927 5.274 A 12.503 12.503 0 0 1 101.62 5.414 A 10.489 10.489 0 0 1 102.563 5.603 A 9.057 9.057 0 0 1 104.052 6.11 A 7.706 7.706 0 0 1 104.761 6.47 A 8.021 8.021 0 0 1 107.08 8.435 Q 108.057 9.644 108.643 11.133 A 13.399 13.399 0 0 1 109.177 12.915 A 15.915 15.915 0 0 1 109.351 13.794 A 17.594 17.594 0 0 1 109.579 16.05 A 20.447 20.447 0 0 1 109.595 16.846 L 109.595 19.678 A 19.472 19.472 0 0 1 109.485 21.788 A 16.454 16.454 0 0 1 109.351 22.754 A 14.976 14.976 0 0 1 108.936 24.55 A 12.676 12.676 0 0 1 108.643 25.415 A 10.414 10.414 0 0 1 107.76 27.24 A 9.058 9.058 0 0 1 107.263 27.966 A 8.367 8.367 0 0 1 105.745 29.519 A 7.676 7.676 0 0 1 105.347 29.81 A 8.205 8.205 0 0 1 103.313 30.796 A 9.338 9.338 0 0 1 102.991 30.896 A 9.508 9.508 0 0 1 101.258 31.221 A 11.792 11.792 0 0 1 100.122 31.275 L 97.07 31.275 Z M 72.827 17.456 L 67.334 17.456 L 67.334 5.274 L 72.754 5.274 Q 74.268 5.298 75.488 5.676 A 6.31 6.31 0 0 1 76.746 6.214 A 5.221 5.221 0 0 1 77.563 6.787 A 4.954 4.954 0 0 1 78.967 8.728 A 6.152 6.152 0 0 1 79.346 10.11 A 8.444 8.444 0 0 1 79.443 11.426 A 7.3 7.3 0 0 1 79.333 12.72 A 5.678 5.678 0 0 1 79.004 13.867 A 5.27 5.27 0 0 1 78.238 15.183 A 4.756 4.756 0 0 1 77.783 15.674 A 5.729 5.729 0 0 1 76.031 16.829 A 6.783 6.783 0 0 1 75.647 16.98 A 7.956 7.956 0 0 1 73.979 17.375 A 10.162 10.162 0 0 1 72.827 17.456 Z M 47.217 22.827 L 38.989 22.827 L 43.14 8.765 L 47.217 22.827 Z M 167.236 22.827 L 159.009 22.827 L 163.159 8.765 L 167.236 22.827 Z" vector-effect="non-scaling-stroke"/></g></svg>