<svg width="408.74" height="75.977" viewBox="0 0 408.74 75.977" xmlns="http://www.w3.org/2000/svg"><g id="svgGroup" stroke-linecap="round" fill-rule="evenodd" font-size="9pt" stroke="#000" stroke-width="0.25mm" fill="#000" style="stroke:#000;stroke-width:0.25mm;fill:#000"><path d="M 50.439 66.26 L 50.342 39.063 L 25.928 39.063 L 25.928 48.193 L 38.818 48.193 L 38.77 62.402 Q 37.988 63.428 36.67 64.185 A 14.151 14.151 0 0 1 34.224 65.287 A 15.97 15.97 0 0 1 33.789 65.43 Q 32.178 65.918 30.42 66.138 A 27.932 27.932 0 0 1 26.953 66.357 A 16.035 16.035 0 0 1 24.145 66.073 A 12.547 12.547 0 0 1 21.802 65.381 A 11.972 11.972 0 0 1 17.822 62.744 A 14.025 14.025 0 0 1 15.454 59.717 Q 14.453 58.008 13.721 56.055 A 28.653 28.653 0 0 1 12.664 52.289 A 33.815 33.815 0 0 1 12.329 50.439 A 40.742 40.742 0 0 1 11.894 45.706 A 47.126 47.126 0 0 1 11.865 44.043 L 11.865 34.863 Q 11.865 31.982 12.207 29.248 A 31.631 31.631 0 0 1 12.9 25.494 A 27.432 27.432 0 0 1 13.281 24.121 A 24.422 24.422 0 0 1 14.624 20.641 A 20.92 20.92 0 0 1 15.405 19.165 A 15.321 15.321 0 0 1 17.303 16.554 A 13.229 13.229 0 0 1 18.457 15.43 A 11.795 11.795 0 0 1 21.875 13.354 A 10.836 10.836 0 0 1 25.195 12.624 A 12.792 12.792 0 0 1 26.025 12.598 A 18.167 18.167 0 0 1 28.563 12.766 Q 30.095 12.982 31.372 13.477 A 10.524 10.524 0 0 1 34.38 15.234 A 9.812 9.812 0 0 1 35.205 16.016 A 11.014 11.014 0 0 1 36.942 18.499 A 13.606 13.606 0 0 1 37.549 19.849 Q 38.428 22.119 38.867 24.902 L 50.391 24.902 A 32.145 32.145 0 0 0 49.385 19.365 A 26.302 26.302 0 0 0 48.096 15.747 A 20.795 20.795 0 0 0 43.164 8.789 A 20.376 20.376 0 0 0 37.391 5.085 A 24.306 24.306 0 0 0 35.742 4.443 A 26.398 26.398 0 0 0 30.609 3.24 A 35.822 35.822 0 0 0 25.781 2.93 A 25.797 25.797 0 0 0 20.655 3.422 A 22.106 22.106 0 0 0 18.091 4.102 A 23.185 23.185 0 0 0 11.621 7.422 Q 8.936 9.473 6.836 12.256 A 31.65 31.65 0 0 0 3.414 17.989 A 34.96 34.96 0 0 0 3.223 18.408 A 35.054 35.054 0 0 0 1.305 24.112 A 40.658 40.658 0 0 0 0.854 26.172 Q 0.049 30.371 0 34.961 L 0 44.043 A 48.484 48.484 0 0 0 0.626 51.441 A 43.443 43.443 0 0 0 0.928 53.076 Q 1.807 57.373 3.516 60.938 A 27.136 27.136 0 0 0 7.3 67.139 Q 9.57 69.922 12.451 71.875 A 23.231 23.231 0 0 0 18.234 74.693 A 26.29 26.29 0 0 0 18.896 74.902 A 25.566 25.566 0 0 0 24.732 75.921 A 29.994 29.994 0 0 0 26.562 75.977 A 38.836 38.836 0 0 0 32.418 75.55 A 33.414 33.414 0 0 0 34.912 75.073 A 35.16 35.16 0 0 0 40.442 73.32 A 31.243 31.243 0 0 0 42.139 72.559 A 27.163 27.163 0 0 0 45.651 70.544 A 23.66 23.66 0 0 0 46.875 69.653 Q 48.975 68.018 50.439 66.26 Z M 363.135 22.168 L 363.135 75 L 374.805 75 L 374.805 37.305 A 14.801 14.801 0 0 1 376.611 34.863 A 12.254 12.254 0 0 1 378.339 33.29 A 11.023 11.023 0 0 1 378.809 32.959 Q 380.322 31.934 382.178 31.372 A 13.23 13.23 0 0 1 385.126 30.846 A 15.643 15.643 0 0 1 386.182 30.811 Q 388.77 30.811 390.771 31.372 A 8.46 8.46 0 0 1 393.247 32.502 A 7.771 7.771 0 0 1 394.189 33.252 A 7.445 7.445 0 0 1 395.677 35.214 A 10.005 10.005 0 0 1 396.338 36.768 Q 397.07 38.965 397.07 42.236 L 397.07 75 L 408.74 75 L 408.74 42.041 A 39.261 39.261 0 0 0 408.525 37.807 Q 408.207 34.885 407.422 32.544 A 19.998 19.998 0 0 0 405.893 29.063 A 15.303 15.303 0 0 0 403.711 26.074 A 14.203 14.203 0 0 0 397.949 22.363 A 21.145 21.145 0 0 0 392.994 21.306 A 25.967 25.967 0 0 0 390.527 21.191 A 19.354 19.354 0 0 0 384.711 22.057 A 18.396 18.396 0 0 0 384.668 22.07 A 19.197 19.197 0 0 0 379.541 24.561 A 20.623 20.623 0 0 0 376.782 26.88 A 21.824 21.824 0 0 0 374.414 29.688 L 373.682 22.168 L 363.135 22.168 Z M 96.826 75 L 108.74 75 L 108.74 74.17 Q 107.764 72.119 107.251 69.263 A 31.285 31.285 0 0 1 106.866 66.229 A 42.62 42.62 0 0 1 106.738 62.842 L 106.738 39.355 A 20.653 20.653 0 0 0 106.33 35.157 A 16.08 16.08 0 0 0 105.078 31.421 A 15.575 15.575 0 0 0 100.488 25.732 A 19.361 19.361 0 0 0 95.941 23.163 A 23.831 23.831 0 0 0 93.53 22.339 A 30.311 30.311 0 0 0 87.144 21.263 A 35.744 35.744 0 0 0 84.863 21.191 A 34.055 34.055 0 0 0 80.118 21.506 A 25.184 25.184 0 0 0 75.659 22.534 A 23.482 23.482 0 0 0 71.954 24.115 A 18.003 18.003 0 0 0 68.896 26.172 A 16.336 16.336 0 0 0 65.906 29.226 A 14.23 14.23 0 0 0 64.6 31.348 A 13.974 13.974 0 0 0 63.086 37.451 L 74.805 37.451 Q 74.805 35.938 75.366 34.595 A 5.628 5.628 0 0 1 77.1 32.324 A 7.481 7.481 0 0 1 78.659 31.285 A 10.018 10.018 0 0 1 80.054 30.713 A 11.125 11.125 0 0 1 81.956 30.278 Q 82.881 30.146 83.927 30.129 A 19.071 19.071 0 0 1 84.229 30.127 A 17.953 17.953 0 0 1 86.566 30.272 Q 87.796 30.433 88.858 30.775 A 11.128 11.128 0 0 1 88.892 30.786 A 10.835 10.835 0 0 1 90.978 31.705 A 8.912 8.912 0 0 1 92.334 32.666 A 8.342 8.342 0 0 1 94.36 35.547 A 8.84 8.84 0 0 1 95.006 38.075 A 10.953 10.953 0 0 1 95.068 39.258 L 95.068 42.822 L 86.572 42.822 A 52.159 52.159 0 0 0 81.319 43.074 A 38.133 38.133 0 0 0 76.343 43.896 Q 72.144 44.895 69.19 46.738 A 17.29 17.29 0 0 0 68.75 47.021 A 14.951 14.951 0 0 0 64.531 51.155 A 14.369 14.369 0 0 0 63.696 52.563 A 15.382 15.382 0 0 0 62.132 57.636 A 19.66 19.66 0 0 0 61.963 60.254 A 14.775 14.775 0 0 0 63.295 66.506 A 14.51 14.51 0 0 0 63.306 66.528 Q 64.648 69.434 67.09 71.484 A 16.536 16.536 0 0 0 70.998 74.013 A 20.287 20.287 0 0 0 72.876 74.78 A 21.034 21.034 0 0 0 77.816 75.854 A 25.957 25.957 0 0 0 80.371 75.977 A 23.365 23.365 0 0 0 83.411 75.786 A 19.53 19.53 0 0 0 85.107 75.488 A 20.56 20.56 0 0 0 88.607 74.386 A 18.648 18.648 0 0 0 89.209 74.121 A 17.724 17.724 0 0 0 91.961 72.63 A 15.855 15.855 0 0 0 92.651 72.144 A 23.109 23.109 0 0 0 94.78 70.354 A 20.374 20.374 0 0 0 95.41 69.727 A 47.297 47.297 0 0 0 95.818 71.928 A 42.475 42.475 0 0 0 95.972 72.632 A 11.276 11.276 0 0 0 96.291 73.77 Q 96.524 74.451 96.826 75 Z M 336.865 75 L 348.779 75 L 348.779 74.17 Q 347.803 72.119 347.29 69.263 A 31.285 31.285 0 0 1 346.906 66.229 A 42.62 42.62 0 0 1 346.777 62.842 L 346.777 39.355 A 20.653 20.653 0 0 0 346.369 35.157 A 16.08 16.08 0 0 0 345.117 31.421 A 15.575 15.575 0 0 0 340.527 25.732 A 19.361 19.361 0 0 0 335.98 23.163 A 23.831 23.831 0 0 0 333.569 22.339 A 30.311 30.311 0 0 0 327.184 21.263 A 35.744 35.744 0 0 0 324.902 21.191 A 34.055 34.055 0 0 0 320.158 21.506 A 25.184 25.184 0 0 0 315.698 22.534 A 23.482 23.482 0 0 0 311.993 24.115 A 18.003 18.003 0 0 0 308.936 26.172 A 16.336 16.336 0 0 0 305.945 29.226 A 14.23 14.23 0 0 0 304.639 31.348 A 13.974 13.974 0 0 0 303.125 37.451 L 314.844 37.451 Q 314.844 35.938 315.405 34.595 A 5.628 5.628 0 0 1 317.139 32.324 A 7.481 7.481 0 0 1 318.698 31.285 A 10.018 10.018 0 0 1 320.093 30.713 A 11.125 11.125 0 0 1 321.995 30.278 Q 322.92 30.146 323.966 30.129 A 19.071 19.071 0 0 1 324.268 30.127 A 17.953 17.953 0 0 1 326.605 30.272 Q 327.835 30.433 328.897 30.775 A 11.128 11.128 0 0 1 328.931 30.786 A 10.835 10.835 0 0 1 331.017 31.705 A 8.912 8.912 0 0 1 332.373 32.666 A 8.342 8.342 0 0 1 334.399 35.547 A 8.84 8.84 0 0 1 335.045 38.075 A 10.953 10.953 0 0 1 335.107 39.258 L 335.107 42.822 L 326.611 42.822 A 52.159 52.159 0 0 0 321.358 43.074 A 38.133 38.133 0 0 0 316.382 43.896 Q 312.183 44.895 309.229 46.738 A 17.29 17.29 0 0 0 308.789 47.021 A 14.951 14.951 0 0 0 304.57 51.155 A 14.369 14.369 0 0 0 303.735 52.563 A 15.382 15.382 0 0 0 302.171 57.636 A 19.66 19.66 0 0 0 302.002 60.254 A 14.775 14.775 0 0 0 303.334 66.506 A 14.51 14.51 0 0 0 303.345 66.528 Q 304.688 69.434 307.129 71.484 A 16.536 16.536 0 0 0 311.037 74.013 A 20.287 20.287 0 0 0 312.915 74.78 A 21.034 21.034 0 0 0 317.855 75.854 A 25.957 25.957 0 0 0 320.41 75.977 A 23.365 23.365 0 0 0 323.45 75.786 A 19.53 19.53 0 0 0 325.146 75.488 A 20.56 20.56 0 0 0 328.646 74.386 A 18.648 18.648 0 0 0 329.248 74.121 A 17.724 17.724 0 0 0 332 72.63 A 15.855 15.855 0 0 0 332.69 72.144 A 23.109 23.109 0 0 0 334.819 70.354 A 20.374 20.374 0 0 0 335.449 69.727 A 47.297 47.297 0 0 0 335.857 71.928 A 42.475 42.475 0 0 0 336.011 72.632 A 11.276 11.276 0 0 0 336.331 73.77 Q 336.563 74.451 336.865 75 Z M 181.543 48.193 L 181.543 49.219 A 39.23 39.23 0 0 0 182.159 56.289 A 33.457 33.457 0 0 0 183.008 59.839 A 29.208 29.208 0 0 0 185.042 64.935 A 23.77 23.77 0 0 0 187.158 68.311 A 19.21 19.21 0 0 0 193.701 73.95 A 17.737 17.737 0 0 0 200.324 75.88 A 21.649 21.649 0 0 0 202.393 75.977 A 21.263 21.263 0 0 0 206.65 75.568 A 16.507 16.507 0 0 0 210.498 74.292 Q 214.014 72.607 216.553 69.482 L 217.09 75 L 227.686 75 L 227.686 0 L 216.016 0 L 216.016 27.1 Q 213.477 24.268 210.181 22.729 A 16.02 16.02 0 0 0 205.941 21.455 A 21.621 21.621 0 0 0 202.49 21.191 A 20.693 20.693 0 0 0 197.314 21.817 A 17.482 17.482 0 0 0 193.726 23.169 Q 189.844 25.146 187.158 28.711 A 23.782 23.782 0 0 0 184.127 33.989 A 29.743 29.743 0 0 0 182.983 37.231 A 35.953 35.953 0 0 0 181.75 43.793 A 45.435 45.435 0 0 0 181.543 48.193 Z M 273.828 22.168 L 245.801 22.168 L 245.801 31.885 L 262.061 31.885 L 262.061 65.332 L 245.801 65.332 L 245.801 75 L 289.355 75 L 289.355 65.332 L 273.828 65.332 L 273.828 22.168 Z M 141.895 30.713 L 141.846 29.492 L 141.357 22.168 L 130.42 22.168 L 130.42 75 L 142.09 75 L 142.09 42.383 A 18.53 18.53 0 0 1 143.497 39.538 A 15.861 15.861 0 0 1 144.385 38.232 Q 145.752 36.426 147.705 35.254 A 12.48 12.48 0 0 1 150.786 33.757 A 14.859 14.859 0 0 1 151.855 33.447 A 19.018 19.018 0 0 1 154.511 32.99 A 25.462 25.462 0 0 1 157.129 32.861 A 46.626 46.626 0 0 1 162.329 33.154 A 52.079 52.079 0 0 1 167.627 34.033 L 169.287 22.51 Q 167.843 21.997 165.353 21.618 A 45.139 45.139 0 0 0 165.112 21.582 Q 162.451 21.191 159.619 21.191 A 20.362 20.362 0 0 0 151.655 22.741 A 19.626 19.626 0 0 0 149.634 23.73 A 24.015 24.015 0 0 0 142.104 30.428 A 27.636 27.636 0 0 0 141.895 30.713 Z M 193.213 49.219 L 193.213 48.193 A 33.149 33.149 0 0 1 193.536 43.488 A 28.592 28.592 0 0 1 193.896 41.479 Q 194.58 38.33 196.094 35.938 Q 197.51 33.545 199.829 32.178 A 9.61 9.61 0 0 1 202.919 31.036 A 13.22 13.22 0 0 1 205.42 30.811 A 14.499 14.499 0 0 1 208.267 31.075 Q 210.328 31.488 211.89 32.544 A 12.602 12.602 0 0 1 215.714 36.668 A 14.883 14.883 0 0 1 216.016 37.207 L 216.016 59.912 A 13.131 13.131 0 0 1 213.523 63.285 A 11.938 11.938 0 0 1 211.865 64.624 A 9.821 9.821 0 0 1 208.574 66.014 Q 207.27 66.314 205.758 66.352 A 17.537 17.537 0 0 1 205.322 66.357 Q 202.1 66.357 199.805 65.015 A 10.707 10.707 0 0 1 196.091 61.354 A 12.476 12.476 0 0 1 196.045 61.279 A 15.073 15.073 0 0 1 194.55 58.174 A 19.407 19.407 0 0 1 193.896 55.859 A 29.93 29.93 0 0 1 193.256 50.952 A 34.71 34.71 0 0 1 193.213 49.219 Z M 87.549 50.195 L 95.068 50.195 L 95.068 59.961 A 8.663 8.663 0 0 1 94.073 61.5 A 11.032 11.032 0 0 1 93.262 62.402 A 12.569 12.569 0 0 1 91.443 63.898 A 15.057 15.057 0 0 1 90.479 64.502 A 15.955 15.955 0 0 1 87.914 65.68 A 18.78 18.78 0 0 1 86.89 66.016 A 14.343 14.343 0 0 1 83.814 66.56 A 17.039 17.039 0 0 1 82.617 66.602 A 15.144 15.144 0 0 1 80.764 66.494 Q 79.645 66.356 78.711 66.04 A 9.325 9.325 0 0 1 77.185 65.375 A 7.257 7.257 0 0 1 75.928 64.502 A 6.371 6.371 0 0 1 74.219 62.134 A 7.597 7.597 0 0 1 73.636 59.356 A 8.738 8.738 0 0 1 73.633 59.131 A 9.276 9.276 0 0 1 73.845 57.111 A 7.632 7.632 0 0 1 74.341 55.615 A 6.916 6.916 0 0 1 76.24 53.149 A 8.21 8.21 0 0 1 76.514 52.93 A 9.143 9.143 0 0 1 78.249 51.86 Q 79.101 51.451 80.127 51.136 A 17.614 17.614 0 0 1 80.957 50.903 A 21.209 21.209 0 0 1 83.589 50.419 Q 84.952 50.251 86.498 50.209 A 38.7 38.7 0 0 1 87.549 50.195 Z M 327.588 50.195 L 335.107 50.195 L 335.107 59.961 A 8.663 8.663 0 0 1 334.112 61.5 A 11.032 11.032 0 0 1 333.301 62.402 A 12.569 12.569 0 0 1 331.482 63.898 A 15.057 15.057 0 0 1 330.518 64.502 A 15.955 15.955 0 0 1 327.953 65.68 A 18.78 18.78 0 0 1 326.929 66.016 A 14.343 14.343 0 0 1 323.853 66.56 A 17.039 17.039 0 0 1 322.656 66.602 A 15.144 15.144 0 0 1 320.804 66.494 Q 319.684 66.356 318.75 66.04 A 9.325 9.325 0 0 1 317.224 65.375 A 7.257 7.257 0 0 1 315.967 64.502 A 6.371 6.371 0 0 1 314.258 62.134 A 7.597 7.597 0 0 1 313.675 59.356 A 8.738 8.738 0 0 1 313.672 59.131 A 9.276 9.276 0 0 1 313.884 57.111 A 7.632 7.632 0 0 1 314.38 55.615 A 6.916 6.916 0 0 1 316.279 53.149 A 8.21 8.21 0 0 1 316.553 52.93 A 9.143 9.143 0 0 1 318.288 51.86 Q 319.14 51.451 320.167 51.136 A 17.614 17.614 0 0 1 320.996 50.903 A 21.209 21.209 0 0 1 323.628 50.419 Q 324.991 50.251 326.537 50.209 A 38.7 38.7 0 0 1 327.588 50.195 Z M 260.986 8.496 A 6.439 6.439 0 0 0 261.226 10.286 A 5.413 5.413 0 0 0 261.89 11.743 A 4.532 4.532 0 0 0 264.022 13.483 A 5.907 5.907 0 0 0 264.551 13.672 A 7.898 7.898 0 0 0 265.659 13.938 Q 266.732 14.111 267.676 13.916 A 5.11 5.11 0 0 0 270.117 12.695 A 5.889 5.889 0 0 0 271.775 11.993 A 4.921 4.921 0 0 0 273.242 10.571 A 4.758 4.758 0 0 0 274.057 7.84 Q 274.057 7.447 274.003 7.031 A 7.051 7.051 0 0 0 273.975 6.836 Q 273.73 4.736 272.095 3.394 A 5.716 5.716 0 0 0 269.729 2.256 Q 268.88 2.057 267.886 2.051 A 10.288 10.288 0 0 0 267.822 2.051 A 9.037 9.037 0 0 0 266.273 2.178 A 7.065 7.065 0 0 0 265.015 2.515 A 6.536 6.536 0 0 0 263.546 3.276 A 5.737 5.737 0 0 0 262.891 3.809 A 5.891 5.891 0 0 0 261.475 5.884 A 6.662 6.662 0 0 0 261.003 7.973 A 7.874 7.874 0 0 0 260.986 8.496 Z" vector-effect="non-scaling-stroke"/></g></svg>